<svg xmlns="http://www.w3.org/2000/svg" xmlns:xlink="http://www.w3.org/1999/xlink" x="0px" y="0px" width="16px" height="448px" viewBox="0 0 16 448"><g transform="translate(0,0)"><g transform="translate(0, 0)"><path fill="#585c64" d="M8,0C3.6,0,0,3.6,0,8s3.6,8,8,8s8-3.6,8-8S12.4,0,8,0z M8,14c-1.5,0-2.8-0.5-3.9-1.4
	c0.6-0.8,0.7-1.8,0.1-2.6C3.7,9.3,2.9,8.6,2.9,8c0-0.8,1.9-1.1,2.5-1.9C6.1,5.3,5.4,3.8,4.7,3c0.8-0.5,1.7-0.9,2.8-1
	c0.2,0.5,0.9,1.1,1.2,1.5c0.5,0.8,0.6,1.3,1.3,1.3c0.2,0,2,0,3-0.3C13.6,5.5,14,6.7,14,8C14,11.3,11.3,14,8,14z"></path>
<path data-color="color-2" fill="#585c64" d="M10.2,6.7C9,6.7,7.9,7.5,8,8.6c0.3,2.5-0.5,3.4,0.6,3.9c1.3,0.5,3.9-1.9,3.8-3.9
	C12.4,7.5,11.5,6.7,10.2,6.7z"></path></g></g><g transform="translate(0,16)"><g transform="translate(0, 0)"><path fill="#585c64" d="M15,1H1C0.448,1,0,1.448,0,2v12c0,0.552,0.448,1,1,1h14c0.552,0,1-0.448,1-1V2C16,1.448,15.552,1,15,1z M6,3
	h2v2H6V3z M2,3h2v2H2V3z M14,13H2V7h12V13z M14,5h-4V3h4V5z"></path></g></g><g transform="translate(0,32)"><g transform="translate(0, 0)"><rect data-color="color-2" x="5" y="7" fill="#585c64" width="2" height="6"></rect>
<rect data-color="color-2" x="9" y="7" fill="#585c64" width="2" height="6"></rect>
<path fill="#585c64" d="M12,1c0-0.6-0.4-1-1-1H5C4.4,0,4,0.4,4,1v2H0v2h1v10c0,0.6,0.4,1,1,1h12c0.6,0,1-0.4,1-1V5h1V3h-4V1z M6,2h4
	v1H6V2z M13,5v9H3V5H13z"></path></g></g><g transform="translate(0,48)"><g transform="translate(0, 0)"><path fill="#585c64" d="M8,12c0.3,0,0.5-0.1,0.7-0.3L14.4,6L13,4.6l-4,4V0H7v8.6l-4-4L1.6,6l5.7,5.7C7.5,11.9,7.7,12,8,12z"></path>
<path data-color="color-2" fill="#585c64" d="M14,14H2v-3H0v4c0,0.6,0.4,1,1,1h14c0.6,0,1-0.4,1-1v-4h-2V14z"></path></g></g><g transform="translate(0,64)"><g transform="translate(0, 0)"><path fill="#585c64" d="M15,15V5l-5-5H2C1.4,0,1,0.4,1,1v14c0,0.6,0.4,1,1,1h12C14.6,16,15,15.6,15,15z M3,2h6v4h4v8H3V2z"></path></g></g><g transform="translate(0,80)"><g transform="translate(0, 0)"><circle cx="8" cy="4" r="4" fill="#585c64"></circle>
<path data-color="color-2" d="M16,13.2a1.989,1.989,0,0,0-1.163-1.818A16.654,16.654,0,0,0,8,10a16.654,16.654,0,0,0-6.837,1.382A1.989,1.989,0,0,0,0,13.2V16H16Z" fill="#585c64"></path></g></g><g transform="translate(0,96)"><g transform="translate(0, 0)"><path fill="#585c64" d="M12.9,4.5l1.5-1.5l-1.4-1.4l-1.5,1.5c-0.7-0.5-1.6-0.9-2.5-1V0H7v2.1c-0.9,0.2-1.8,0.5-2.5,1L3.1,1.6
	L1.6,3.1l1.5,1.5C2.6,5.2,2.2,6.1,2.1,7H0v2h2.1c0.2,0.9,0.5,1.8,1,2.5l-1.5,1.5l1.4,1.4l1.5-1.5c0.7,0.5,1.6,0.9,2.5,1V16h2v-2.1
	c0.9-0.2,1.8-0.5,2.5-1l1.5,1.5l1.4-1.4l-1.5-1.5c0.5-0.7,0.9-1.6,1-2.5H16V7h-2.1C13.8,6.1,13.4,5.2,12.9,4.5z M8,11
	c-1.7,0-3-1.3-3-3s1.3-3,3-3s3,1.3,3,3S9.7,11,8,11z"></path></g></g><g transform="translate(0,112)"><g transform="translate(0, 0)"><path fill="#585c64" d="M15,3h-5C9.4,3,9,3.4,9,4s0.4,1,1,1h5c0.6,0,1-0.4,1-1S15.6,3,15,3z"></path>
<path fill="#585c64" d="M1,5h1v2c0,0.6,0.4,1,1,1h3c0.6,0,1-0.4,1-1V1c0-0.6-0.4-1-1-1H3C2.4,0,2,0.4,2,1v2H1C0.4,3,0,3.4,0,4
	S0.4,5,1,5z"></path>
<path data-color="color-2" fill="#585c64" d="M1,13h5c0.6,0,1-0.4,1-1s-0.4-1-1-1H1c-0.6,0-1,0.4-1,1S0.4,13,1,13z"></path>
<path data-color="color-2" fill="#585c64" d="M15,11h-1V9c0-0.6-0.4-1-1-1h-3C9.4,8,9,8.4,9,9v6c0,0.6,0.4,1,1,1h3c0.6,0,1-0.4,1-1v-2h1
	c0.6,0,1-0.4,1-1S15.6,11,15,11z"></path></g></g><g transform="translate(0,128)"><g transform="translate(0, 0)"><path fill="#585c64" d="M15.285,12.305l-2.578-2.594c-0.39-0.393-1.025-0.393-1.416-0.002L9,12L4,7l2.294-2.294
	c0.39-0.39,0.391-1.023,0.001-1.414l-2.58-2.584C3.324,0.317,2.691,0.317,2.3,0.708L0.004,3.003L0,3c0,7.18,5.82,13,13,13
	l2.283-2.283C15.673,13.327,15.674,12.696,15.285,12.305z"></path></g></g><g transform="translate(0,144)"><g transform="translate(0, 0)"><path fill="#585c64" d="M11.7,0.3c-0.4-0.4-1-0.4-1.4,0l-10,10C0.1,10.5,0,10.7,0,11v4c0,0.6,0.4,1,1,1h4c0.3,0,0.5-0.1,0.7-0.3
	l10-10c0.4-0.4,0.4-1,0-1.4L11.7,0.3z M4.6,14H2v-2.6l6-6L10.6,8L4.6,14z M12,6.6L9.4,4L11,2.4L13.6,5L12,6.6z"></path></g></g><g transform="translate(0,160)"><g transform="translate(0, 0)"><path fill="#585c64" d="M15,1h-3v2h2v11H2V3h2V1H1C0.4,1,0,1.4,0,2v13c0,0.6,0.4,1,1,1h14c0.6,0,1-0.4,1-1V2C16,1.4,15.6,1,15,1z"></path>
<rect x="5" fill="#585c64" width="6" height="4"></rect>
<rect data-color="color-2" x="4" y="6" fill="#585c64" width="8" height="2"></rect>
<rect data-color="color-2" x="4" y="10" fill="#585c64" width="8" height="2"></rect></g></g><g transform="translate(0,176)"><g transform="translate(0, 0)"><path fill="#585c64" d="M8,6L8,6C6.3,6,5,4.7,5,3v0c0-1.7,1.3-3,3-3h0c1.7,0,3,1.3,3,3v0C11,4.7,9.7,6,8,6z"></path>
<polygon fill="#585c64" points="10,16 6,16 6,12 4,10 4,7 12,7 12,10 10,12 "></polygon>
<path data-color="color-2" fill="#585c64" d="M2,5L2,5C0.9,5,0,4.1,0,3v0c0-1.1,0.9-2,2-2h0c1.1,0,2,0.9,2,2v0C4,4.1,3.1,5,2,5z"></path>
<polygon data-color="color-2" fill="#585c64" points="3,10.4 3,6 0,6 0,9 1,10 1,14 4,14 4,11.4 "></polygon>
<path data-color="color-2" fill="#585c64" d="M14,5L14,5c1.1,0,2-0.9,2-2v0c0-1.1-0.9-2-2-2h0c-1.1,0-2,0.9-2,2v0C12,4.1,12.9,5,14,5z"></path>
<polygon data-color="color-2" fill="#585c64" points="13,10.4 13,6 16,6 16,9 15,10 15,14 12,14 12,11.4 "></polygon></g></g><g transform="translate(0,192)"><g transform="translate(0, 0)"><path fill="#585c64" d="M13.3,6H9V2c0-1.5-0.8-2-2-2C6.7,0,6.4,0.2,6.4,0.5C6.4,0.5,4.1,8,4,8v8h8.6c1.3,0,2.4-1,2.6-2.3L16,9.1
	c0.1-0.8-0.1-1.6-0.6-2.1C14.9,6.3,14.1,6,13.3,6z"></path>
<rect data-color="color-2" y="8" fill="#585c64" width="2" height="8"></rect></g></g><g transform="translate(0,208)"><g transform="translate(0, 0)"><polygon data-color="color-2" fill="#585c64" points="8,13.4 2.1,9.7 0,11 8,16 16,11 13.9,9.7 "></polygon>
<polygon fill="#585c64" points="0,6 8,1 16,6 8,11 "></polygon></g></g><g transform="translate(0,224)"><g transform="translate(0, 0)"><path fill="#585c64" d="M15,1H1C0.4,1,0,1.4,0,2v12c0,0.6,0.4,1,1,1h14c0.6,0,1-0.4,1-1V2C16,1.4,15.6,1,15,1z M6,4c0.6,0,1,0.4,1,1
	c0,0.6-0.4,1-1,1C5.4,6,5,5.6,5,5C5,4.4,5.4,4,6,4z M2,12l2-4l3,2l3-4l4,6H2z"></path></g></g><g transform="translate(0,240)"><g transform="translate(0, 0)"><rect data-color="color-2" x="6" y="6" fill="#585c64" width="4" height="2"></rect>
<path fill="#585c64" d="M15.651,6.241l-7-6c-0.375-0.322-0.927-0.322-1.302,0L4,3.112V2c0-0.553-0.448-1-1-1S2,1.447,2,2v2.826
	L0.349,6.241C-0.07,6.601-0.119,7.231,0.241,7.65c0.359,0.42,0.99,0.468,1.41,0.108L2,7.46V15c0,0.553,0.448,1,1,1h10
	c0.552,0,1-0.447,1-1V7.46l0.349,0.299C14.538,7.921,14.769,8,15,8c0.282,0,0.562-0.118,0.76-0.35
	C16.119,7.231,16.07,6.601,15.651,6.241z M12,14h-2v-4H6v4H4V5.746l4-3.428l4,3.428V14z"></path></g></g><g transform="translate(0,256)"><g transform="translate(0, 0)"><path fill="#585c64" d="M14.682,2.318c-1.757-1.757-4.607-1.757-6.364,0C8.197,2.439,8.104,2.577,8,2.707
		C7.896,2.577,7.803,2.439,7.682,2.318c-1.757-1.757-4.607-1.757-6.364,0c-1.757,1.757-1.757,4.607,0,6.364L8,15l6.682-6.318
		C16.439,6.925,16.439,4.075,14.682,2.318z"></path></g></g><g transform="translate(0,272)"><g transform="translate(0, 0)"><path fill="#585c64" d="M6,0H1C0.4,0,0,0.4,0,1v5c0,0.6,0.4,1,1,1h5c0.6,0,1-0.4,1-1V1C7,0.4,6.6,0,6,0z"></path>
<path fill="#585c64" d="M15,0h-5C9.4,0,9,0.4,9,1v5c0,0.6,0.4,1,1,1h5c0.6,0,1-0.4,1-1V1C16,0.4,15.6,0,15,0z"></path>
<path fill="#585c64" d="M6,9H1c-0.6,0-1,0.4-1,1v5c0,0.6,0.4,1,1,1h5c0.6,0,1-0.4,1-1v-5C7,9.4,6.6,9,6,9z"></path>
<path fill="#585c64" d="M15,9h-5c-0.6,0-1,0.4-1,1v5c0,0.6,0.4,1,1,1h5c0.6,0,1-0.4,1-1v-5C16,9.4,15.6,9,15,9z"></path></g></g><g transform="translate(0,288)"><g transform="translate(0, 0)"><path fill="#585c64" d="M15,1H1C0.448,1,0,1.447,0,2v12c0,0.553,0.448,1,1,1h14c0.552,0,1-0.447,1-1V2C16,1.447,15.552,1,15,1z
	 M14,13H2V6.723l5.504,3.145c0.308,0.176,0.685,0.176,0.992,0L14,6.723V13z M14,4.42L8,7.849L2,4.42V3h12V4.42z"></path></g></g><g transform="translate(0,304)"><g transform="translate(0, 0)"><path fill="#585c64" d="M10,2C7,2,4.5,4.2,4.1,7.1C3.9,7,3.7,7,3.5,7C1.6,7,0,8.6,0,10.5S1.6,14,3.5,14c1.1,0,5.1,0,6.5,0
	c3.3,0,6-2.7,6-6S13.3,2,10,2z"></path></g></g><g transform="translate(0,320)"><g transform="translate(0, 0)"><path data-color="color-2" fill="#585c64" d="M15,4h-1v6c0,0.552-0.448,1-1,1H6.828L5,13h5l3,3v-3h2c0.552,0,1-0.448,1-1V5
	C16,4.448,15.552,4,15,4z"></path>
<path fill="#585c64" d="M1,0h10c0.552,0,1,0.448,1,1v7c0,0.552-0.448,1-1,1H6l-3,3V9H1C0.448,9,0,8.552,0,8V1C0,0.448,0.448,0,1,0z"></path></g></g><g transform="translate(0,336)"><g transform="translate(0, 0)"><path fill="#585c64" d="M15,3h-2.5l-1.7-2.6C10.6,0.2,10.3,0,10,0H6C5.7,0,5.4,0.2,5.2,0.4L3.5,3H1C0.4,3,0,3.4,0,4v11
	c0,0.6,0.4,1,1,1h14c0.6,0,1-0.4,1-1V4C16,3.4,15.6,3,15,3z M14,14H2V5h2c0.3,0,0.6-0.2,0.8-0.4L6.5,2h2.9l1.7,2.6
	C11.4,4.8,11.7,5,12,5h2V14z"></path>
<circle data-color="color-2" fill="#585c64" cx="8" cy="9" r="3"></circle></g></g><g transform="translate(0,352)"><g transform="translate(0, 0)"><path fill="#585c64" d="M15,2h-2V0h-3v2H6V0H3v2H1C0.448,2,0,2.448,0,3v12c0,0.552,0.448,1,1,1h14c0.552,0,1-0.448,1-1V3
	C16,2.448,15.552,2,15,2z M14,14H2V7h12V14z"></path></g></g><g transform="translate(0,368)"><g transform="translate(0, 0)"><path data-color="color-2" fill="#585c64" d="M10,14H6c0,1.1,0.9,2,2,2S10,15.1,10,14z"></path>
<path fill="#585c64" d="M15,11h-0.5C13.8,10.3,13,9.3,13,8V5c0-2.8-2.2-5-5-5S3,2.2,3,5v3c0,1.3-0.8,2.3-1.5,3H1c-0.6,0-1,0.4-1,1
	s0.4,1,1,1h14c0.6,0,1-0.4,1-1S15.6,11,15,11z"></path></g></g><g transform="translate(0,384)"><g transform="translate(0, 0)"><path fill="#585c64" d="M15,2h-2c-0.6,0-1,0.4-1,1c0,0.6-0.4,1-1,1s-1-0.4-1-1c0-0.6-0.4-1-1-1H7C6.4,2,6,2.4,6,3c0,0.6-0.4,1-1,1
	S4,3.6,4,3c0-0.6-0.4-1-1-1H1C0.4,2,0,2.4,0,3v10c0,0.6,0.4,1,1,1h14c0.6,0,1-0.4,1-1V3C16,2.4,15.6,2,15,2z M7,11H3V7h4V11z M13,11
	H9v-1h4V11z M13,8H9V7h4V8z"></path></g></g><g transform="translate(0,400)"><g transform="translate(0, 0)"><circle fill="#585c64" cx="8" cy="5" r="5"></circle>
<path data-color="color-2" fill="#585c64" d="M13.8,8.9c-1.1,1.7-3,2.9-5.2,3.1l1.9,4l1.9-3.1l3.6,0.5L13.8,8.9z"></path>
<path data-color="color-2" fill="#585c64" d="M2.2,8.9L0,13.4l3.6-0.5L5.4,16l1.9-4C5.2,11.8,3.3,10.6,2.2,8.9z"></path></g></g><g transform="translate(0,416)"><g transform="translate(0, 0)"><path fill="#585c64" d="M14,0.8C13.9,0.3,13.5,0,13,0H3C2.5,0,2.1,0.3,2,0.8c0,0-2,7.7-2,8.2v6c0,0.6,0.4,1,1,1h14c0.6,0,1-0.4,1-1
	V9C16,8.5,14,0.8,14,0.8z M3.8,2h8.4l1.5,6H11c-0.6,0-1,0.4-1,1v2H6V9c0-0.6-0.4-1-1-1H2.3L3.8,2z"></path></g></g><g transform="translate(0,432)"><g transform="translate(0, 0)"><path data-color="color-2" fill="#585c64" d="M3,2h10c0.6,0,1-0.4,1-1s-0.4-1-1-1H3C2.4,0,2,0.4,2,1S2.4,2,3,2z"></path>
<path fill="#585c64" d="M15,4H1C0.4,4,0,4.4,0,5v10c0,0.6,0.4,1,1,1h14c0.6,0,1-0.4,1-1V5C16,4.4,15.6,4,15,4z M12,11H4V7h2v2h4V7h2
	V11z"></path></g></g></svg>